<svg xmlns="http://www.w3.org/2000/svg" viewBox="0 0 512 512">
  <rect width="512" height="512" fill="#111a22"/>
  <circle cx="256" cy="256" r="224" fill="#172431"/>
  <circle cx="378" cy="138" r="54" fill="#21344a"/>
  <path d="M146 116h58v173c0 45 18 66 57 66 35 0 55-20 61-58h62c-7 80-57 124-126 124-87 0-112-52-112-128z" fill="#f2ece2"/>
  <g transform="translate(266 134)">
    <path d="M36 20h26v28H36zM74 20h26v28H74zM112 20h26v28h-26z" fill="#fff4e7"/>
    <path d="M38 48h102v36H38z" fill="#f3d4b9"/>
    <path d="M54 84h70v64H54z" fill="#ff8a66"/>
    <path d="M46 148h86l12 36H34z" fill="#f3d4b9"/>
    <path d="M22 202h136" stroke="#fff4e7" stroke-linecap="round" stroke-width="16"/>
  </g>
</svg>
